ply
format ascii 1.0
comment Created by Blender 3.0.0 - www.blender.org
element vertex 8
property float x
property float y
property float z
property float s
property float t
element face 12
property list uchar uint vertex_indices
end_header
1.000000 1.000000 -1.000000 0.0 0.0
1.000000 -1.000000 -1.000000 0.0 0.0
1.000000 1.000000 1.000000 0.0 0.0
1.000000 -1.000000 1.000000 0.0 0.0
-1.000000 1.000000 -1.000000 0.0 0.0
-1.000000 -1.000000 -1.000000 0.0 0.0
-1.000000 1.000000 1.000000 0.0 0.0
-1.000000 -1.000000 1.000000 0.0 0.0
3 4 2 0
3 2 7 3
3 6 5 7
3 1 7 5
3 0 3 1
3 4 1 5
3 4 6 2
3 2 6 7
3 6 4 5
3 1 3 7
3 0 2 3
3 4 0 1
